<svg width="112" height="112" viewBox="0 0 112 112" fill="none" xmlns="http://www.w3.org/2000/svg">
<circle cx="11.0711" cy="57.7401" r="5" transform="rotate(-45 11.0711 57.7401)" fill="#FCD3D9" fill-opacity="0.6"/>
<circle cx="26.6275" cy="73.2964" r="5" transform="rotate(-45 26.6275 73.2964)" fill="#FCD3D9" fill-opacity="0.6"/>
<circle cx="42.1837" cy="88.8528" r="5" transform="rotate(-45 42.1837 88.8528)" fill="#FCD3D9" fill-opacity="0.6"/>
<circle cx="57.7401" cy="104.409" r="5" transform="rotate(-45 57.7401 104.409)" fill="#FCD3D9" fill-opacity="0.6"/>
<circle cx="26.6275" cy="42.1838" r="5" transform="rotate(-45 26.6275 42.1838)" fill="#FCD3D9" fill-opacity="0.6"/>
<circle cx="42.1837" cy="57.7401" r="5" transform="rotate(-45 42.1837 57.7401)" fill="#FCD3D9" fill-opacity="0.6"/>
<circle cx="57.7401" cy="73.2964" r="5" transform="rotate(-45 57.7401 73.2964)" fill="#FCD3D9" fill-opacity="0.6"/>
<circle cx="73.2964" cy="88.8528" r="5" transform="rotate(-45 73.2964 88.8528)" fill="#FCD3D9" fill-opacity="0.6"/>
<circle cx="42.1837" cy="26.6274" r="5" transform="rotate(-45 42.1837 26.6274)" fill="#FCD3D9" fill-opacity="0.6"/>
<circle cx="57.7401" cy="42.1838" r="5" transform="rotate(-45 57.7401 42.1838)" fill="#FCD3D9" fill-opacity="0.6"/>
<circle cx="73.2964" cy="57.7401" r="5" transform="rotate(-45 73.2964 57.7401)" fill="#FCD3D9" fill-opacity="0.6"/>
<circle cx="88.8528" cy="73.2964" r="5" transform="rotate(-45 88.8528 73.2964)" fill="#FCD3D9" fill-opacity="0.6"/>
<circle cx="57.7401" cy="11.071" r="5" transform="rotate(-45 57.7401 11.071)" fill="#FCD3D9" fill-opacity="0.6"/>
<circle cx="73.2964" cy="26.6274" r="5" transform="rotate(-45 73.2964 26.6274)" fill="#FCD3D9" fill-opacity="0.6"/>
<circle cx="88.8528" cy="42.1838" r="5" transform="rotate(-45 88.8528 42.1838)" fill="#FCD3D9" fill-opacity="0.6"/>
<circle cx="104.409" cy="57.7401" r="5" transform="rotate(-45 104.409 57.7401)" fill="#FCD3D9" fill-opacity="0.6"/>
<circle cx="7.07107" cy="53.7401" r="5" transform="rotate(-45 7.07107 53.7401)" fill="#EB6968"/>
<circle cx="22.6275" cy="69.2964" r="5" transform="rotate(-45 22.6275 69.2964)" fill="#EB6968"/>
<circle cx="38.1837" cy="84.8528" r="5" transform="rotate(-45 38.1837 84.8528)" fill="#EB6968"/>
<circle cx="53.7401" cy="100.409" r="5" transform="rotate(-45 53.7401 100.409)" fill="#EB6968"/>
<circle cx="22.6275" cy="38.1838" r="5" transform="rotate(-45 22.6275 38.1838)" fill="#EB6968"/>
<circle cx="38.1837" cy="53.7401" r="5" transform="rotate(-45 38.1837 53.7401)" fill="#EB6968"/>
<circle cx="53.7401" cy="69.2964" r="5" transform="rotate(-45 53.7401 69.2964)" fill="#EB6968"/>
<circle cx="69.2964" cy="84.8528" r="5" transform="rotate(-45 69.2964 84.8528)" fill="#EB6968"/>
<circle cx="38.1837" cy="22.6274" r="5" transform="rotate(-45 38.1837 22.6274)" fill="#EB6968"/>
<circle cx="53.7401" cy="38.1838" r="5" transform="rotate(-45 53.7401 38.1838)" fill="#EB6968"/>
<circle cx="69.2964" cy="53.7401" r="5" transform="rotate(-45 69.2964 53.7401)" fill="#EB6968"/>
<circle cx="84.8528" cy="69.2964" r="5" transform="rotate(-45 84.8528 69.2964)" fill="#EB6968"/>
<circle cx="53.7401" cy="7.07104" r="5" transform="rotate(-45 53.7401 7.07104)" fill="#EB6968"/>
<circle cx="69.2964" cy="22.6274" r="5" transform="rotate(-45 69.2964 22.6274)" fill="#EB6968"/>
<circle cx="84.8528" cy="38.1838" r="5" transform="rotate(-45 84.8528 38.1838)" fill="#EB6968"/>
<circle cx="100.409" cy="53.7401" r="5" transform="rotate(-45 100.409 53.7401)" fill="#EB6968"/>
</svg>
