<svg width="74" height="76" viewBox="0 0 74 76" fill="none" xmlns="http://www.w3.org/2000/svg">
<path d="M70.8749 75.5C70.0461 75.5 69.2513 75.1708 68.6652 74.5847C68.0792 73.9987 67.7499 73.2038 67.7499 72.375V3.625C67.7499 2.7962 68.0792 2.00134 68.6652 1.41529C69.2513 0.82924 70.0461 0.5 70.8749 0.5C71.7037 0.5 72.4986 0.82924 73.0846 1.41529C73.6707 2.00134 73.9999 2.7962 73.9999 3.625V72.375C74.0055 72.7869 73.9285 73.1958 73.7735 73.5775C73.6184 73.9592 73.3884 74.3059 73.0971 74.5972C72.8058 74.8885 72.4591 75.1185 72.0774 75.2735C71.6957 75.4286 71.2869 75.5056 70.8749 75.5ZM56.7083 35.5458C56.7457 36.9978 56.4453 38.4386 55.8306 39.7547C55.216 41.0707 54.304 42.2259 53.1666 43.1292L15.2083 72.6708C13.8499 73.7 12.2374 74.3375 10.5416 74.5042H9.58326C8.14066 74.5403 6.71084 74.2257 5.41659 73.5875C3.87552 72.8354 2.57631 71.6661 1.66659 70.2125C0.760767 68.7637 0.284019 67.0878 0.291593 65.3792V10.5875C0.296093 8.94429 0.742213 7.3325 1.58326 5.92083C2.45003 4.51751 3.6717 3.36771 5.12493 2.5875C6.57249 1.80504 8.20541 1.43051 9.84927 1.50389C11.4931 1.57728 13.0862 2.09583 14.4583 3.00417L52.4583 28.3375C53.6666 29.1333 54.6666 30.2042 55.3749 31.4625C56.1226 32.7052 56.5785 34.1014 56.7083 35.5458Z" fill="#EB6968"/>
</svg>
