<svg width="270" height="223" viewBox="0 0 270 223" fill="none" xmlns="http://www.w3.org/2000/svg">
<path fill-rule="evenodd" clip-rule="evenodd" d="M269.5 17.5C269.5 23.8513 264.352 29 258 29C251.649 29 246.5 23.8513 246.5 17.5C246.5 11.1487 251.649 6 258 6C264.352 6 269.5 11.1487 269.5 17.5Z" fill="#FCD3D9" fill-opacity="0.6"/>
<path d="M22.0731 220.688L245.073 41.6884C249.595 38.0584 250.319 31.4496 246.689 26.9273C243.059 22.405 236.45 21.6816 231.928 25.3116L8.92765 204.312C4.40533 207.942 3.682 214.55 7.31201 219.073C10.942 223.595 17.5508 224.318 22.0731 220.688Z" fill="#FCD3D9" fill-opacity="0.6"/>
<path fill-rule="evenodd" clip-rule="evenodd" d="M238.569 23.4312C240.817 26.2307 240.369 30.3218 237.569 32.569L14.5692 211.569C11.7697 213.816 7.67852 213.368 5.43137 210.569C3.18422 207.769 3.632 203.678 6.43153 201.431L229.432 22.431C232.231 20.1838 236.322 20.6316 238.569 23.4312Z" fill="#B0D366"/>
<path fill-rule="evenodd" clip-rule="evenodd" d="M6.43155 201.431C3.63202 203.678 3.18424 207.769 5.43139 210.569C7.67854 213.368 11.7697 213.816 14.5692 211.569L237.569 32.569L240.073 35.6884L17.0731 214.688C12.5508 218.318 5.94202 217.595 2.31202 213.073L5.42417 210.575L2.31201 213.073C-1.318 208.55 -0.594661 201.942 3.92766 198.312L6.41106 201.405L3.92765 198.312L3.92766 198.312L226.928 19.3116C231.45 15.6816 238.059 16.405 241.689 20.9273V20.9273C245.319 25.4496 244.595 32.0584 240.073 35.6884L237.569 32.569C240.369 30.3218 240.817 26.2307 238.569 23.4312C236.322 20.6317 232.231 20.1839 229.432 22.431L6.43155 201.431Z" fill="white"/>
<path d="M260.5 11.5C260.5 15.6421 257.143 19 253 19C248.858 19 245.5 15.6421 245.5 11.5C245.5 7.35786 248.858 4 253 4C257.143 4 260.5 7.35786 260.5 11.5Z" fill="#B0D366"/>
<path fill-rule="evenodd" clip-rule="evenodd" d="M264.5 11.5C264.5 17.8513 259.352 23 253 23C246.649 23 241.5 17.8513 241.5 11.5C241.5 5.14873 246.649 0 253 0C259.352 0 264.5 5.14873 264.5 11.5ZM253 19C257.143 19 260.5 15.6421 260.5 11.5C260.5 7.35786 257.143 4 253 4C248.858 4 245.5 7.35786 245.5 11.5C245.5 15.6421 248.858 19 253 19Z" fill="white"/>
<path d="M154 54.5C154 60.8513 148.852 66 142.5 66C136.149 66 131 60.8513 131 54.5C131 48.1487 136.149 43 142.5 43C148.852 43 154 48.1487 154 54.5Z" fill="#FCD3D9" fill-opacity="0.6"/>
<path d="M129.582 78.6811C134.101 75.0461 134.817 68.4365 131.182 63.9182C127.547 59.3999 120.937 58.6839 116.419 62.3189L49.9187 115.819C45.4004 119.454 44.6844 126.063 48.3194 130.582C51.9544 135.1 58.564 135.816 63.0823 132.181L129.582 78.6811Z" fill="#FCD3D9" fill-opacity="0.6"/>
<path fill-rule="evenodd" clip-rule="evenodd" d="M122.565 61.4255C124.815 64.2226 124.372 68.3142 121.575 70.5645L55.0748 124.064C52.2777 126.315 48.1861 125.871 45.9359 123.074C43.6856 120.277 44.1289 116.186 46.9259 113.936L113.426 60.4355C116.223 58.1853 120.315 58.6285 122.565 61.4255Z" fill="#EB6968"/>
<path fill-rule="evenodd" clip-rule="evenodd" d="M125.681 58.9182C129.316 63.4365 128.6 70.046 124.082 73.6811L57.5821 127.181C53.0639 130.816 46.4543 130.1 42.8193 125.582C39.1843 121.063 39.9003 114.454 44.4186 110.819L110.919 57.3189C115.437 53.6839 122.046 54.3999 125.681 58.9182L125.681 58.9182ZM121.575 70.5645C124.372 68.3142 124.815 64.2226 122.565 61.4255C120.315 58.6285 116.223 58.1852 113.426 60.4355L46.9259 113.935C44.1289 116.186 43.6856 120.277 45.9359 123.074C48.1861 125.871 52.2778 126.315 55.0748 124.064L121.575 70.5645Z" fill="white"/>
<path d="M144.5 49.5C144.5 53.6421 141.143 57 137 57C132.858 57 129.5 53.6421 129.5 49.5C129.5 45.3579 132.858 42 137 42C141.143 42 144.5 45.3579 144.5 49.5Z" fill="#EB6968"/>
<path fill-rule="evenodd" clip-rule="evenodd" d="M148.5 49.5C148.5 55.8513 143.352 61 137 61C130.649 61 125.5 55.8513 125.5 49.5C125.5 43.1487 130.649 38 137 38C143.352 38 148.5 43.1487 148.5 49.5ZM137 57C141.143 57 144.5 53.6421 144.5 49.5C144.5 45.3579 141.143 42 137 42C132.858 42 129.5 45.3579 129.5 49.5C129.5 53.6421 132.858 57 137 57Z" fill="white"/>
</svg>
