<svg width="270" height="221" viewBox="0 0 270 221" fill="none" xmlns="http://www.w3.org/2000/svg">
<path fill-rule="evenodd" clip-rule="evenodd" d="M5 209.5C5 203.149 10.1487 198 16.5 198C22.8513 198 28 203.149 28 209.5C28 215.852 22.8513 221 16.5 221C10.1487 221 5 215.852 5 209.5Z" fill="#FCD3D9" fill-opacity="0.6"/>
<path d="M252.427 6.31203L29.4273 185.312C24.905 188.942 24.1816 195.551 27.8116 200.073C31.4417 204.595 38.0504 205.319 42.5727 201.689L265.573 22.6888C270.095 19.0587 270.818 12.45 267.188 7.92764C263.558 3.40536 256.95 2.68199 252.427 6.31203Z" fill="#FCD3D9" fill-opacity="0.6"/>
<path fill-rule="evenodd" clip-rule="evenodd" d="M25.931 193.569C23.6838 190.77 24.1316 186.679 26.9312 184.431L249.931 5.43137C252.731 3.18421 256.822 3.63201 259.069 6.43153C261.316 9.23106 260.868 13.3222 258.069 15.5693L35.0688 194.569C32.2693 196.817 28.1781 196.369 25.931 193.569Z" fill="#B0D366"/>
<path fill-rule="evenodd" clip-rule="evenodd" d="M258.069 15.5694C260.868 13.3222 261.316 9.23106 259.069 6.43153C256.822 3.63202 252.731 3.18422 249.931 5.43138L26.9312 184.431L24.4273 181.312L247.427 2.31201C251.95 -1.31802 258.558 -0.59465 262.188 3.92763L259.076 6.42574L262.188 3.92764C265.818 8.44995 265.095 15.0587 260.573 18.6887L258.089 15.5949L260.573 18.6887L260.573 18.6887L37.5727 197.689C33.0504 201.319 26.4417 200.595 22.8116 196.073V196.073C19.1816 191.551 19.905 184.942 24.4273 181.312L26.9312 184.431C24.1317 186.679 23.6839 190.77 25.931 193.569C28.1782 196.369 32.2693 196.816 35.0688 194.569L258.069 15.5694Z" fill="white"/>
<path d="M4 205.5C4 201.358 7.35786 198 11.5 198C15.6421 198 19 201.358 19 205.5C19 209.643 15.6421 213 11.5 213C7.35786 213 4 209.643 4 205.5Z" fill="#B0D366"/>
<path fill-rule="evenodd" clip-rule="evenodd" d="M0 205.5C0 199.149 5.14873 194 11.5 194C17.8513 194 23 199.149 23 205.5C23 211.852 17.8513 217 11.5 217C5.14873 217 0 211.852 0 205.5ZM11.5 198C7.35786 198 4 201.358 4 205.5C4 209.643 7.35786 213 11.5 213C15.6421 213 19 209.643 19 205.5C19 201.358 15.6421 198 11.5 198Z" fill="white"/>
<path d="M131 161C124.649 161 119.5 166.149 119.5 172.5C119.5 178.852 124.649 184 131 184C137.351 184 142.5 178.852 142.5 172.5C142.5 166.149 137.351 161 131 161Z" fill="#FCD3D9" fill-opacity="0.6"/>
<path d="M143.918 148.319C139.4 151.954 138.684 158.564 142.319 163.082C145.954 167.6 152.563 168.316 157.082 164.681L223.582 111.181C228.1 107.546 228.816 100.937 225.181 96.4186C221.546 91.9003 214.936 91.1843 210.418 94.8193L143.918 148.319Z" fill="#FCD3D9" fill-opacity="0.6"/>
<path fill-rule="evenodd" clip-rule="evenodd" d="M140.936 155.575C138.685 152.778 139.129 148.686 141.926 146.436L208.426 92.9359C211.223 90.6856 215.314 91.1289 217.564 93.9259C219.815 96.723 219.371 100.815 216.574 103.065L150.074 156.565C147.277 158.815 143.186 158.372 140.936 155.575Z" fill="#EB6968"/>
<path fill-rule="evenodd" clip-rule="evenodd" d="M137.819 158.082C134.184 153.564 134.9 146.954 139.418 143.319L205.918 89.8193C210.437 86.1843 217.046 86.9003 220.681 91.4186C224.316 95.9369 223.6 102.546 219.082 106.181L152.582 159.681C148.063 163.316 141.454 162.6 137.819 158.082L137.819 158.082ZM141.926 146.436C139.129 148.686 138.685 152.778 140.936 155.575C143.186 158.372 147.277 158.815 150.074 156.565L216.574 103.065C219.371 100.815 219.815 96.723 217.564 93.9259C215.314 91.1289 211.223 90.6856 208.426 92.9359L141.926 146.436Z" fill="white"/>
<path d="M119 167.5C119 163.358 122.358 160 126.5 160C130.642 160 134 163.358 134 167.5C134 171.643 130.642 175 126.5 175C122.358 175 119 171.643 119 167.5Z" fill="#EB6968"/>
<path fill-rule="evenodd" clip-rule="evenodd" d="M115 167.5C115 161.149 120.149 156 126.5 156C132.851 156 138 161.149 138 167.5C138 173.852 132.851 179 126.5 179C120.149 179 115 173.852 115 167.5ZM126.5 160C122.358 160 119 163.358 119 167.5C119 171.643 122.358 175 126.5 175C130.642 175 134 171.643 134 167.5C134 163.358 130.642 160 126.5 160Z" fill="white"/>
</svg>
